<?xml version="1.0" standalone="no"?>
<!DOCTYPE svg PUBLIC "-//W3C//DTD SVG 20010904//EN"
 "http://www.w3.org/TR/2001/REC-SVG-20010904/DTD/svg10.dtd">
<svg version="1.0" xmlns="http://www.w3.org/2000/svg"
 width="628.000000pt" height="628.000000pt" viewBox="0 0 628.000000 628.000000"
 preserveAspectRatio="xMidYMid meet">
<metadata>
Created by potrace 1.14, written by Peter Selinger 2001-2017
</metadata>
<g transform="translate(0.000000,628.000000) scale(0.100000,-0.100000)"
fill="#000000" stroke="none">
<path d="M0 3135 l0 -3135 1508 1 c829 1 1459 5 1401 10 -296 21 -667 111
-964 233 -220 91 -535 280 -735 440 -481 387 -829 884 -1020 1457 -100 302
-146 566 -157 894 -16 521 78 973 301 1440 163 341 349 602 625 875 353 350
728 582 1203 746 528 182 1141 213 1700 84 676 -155 1297 -546 1732 -1089 368
-461 588 -979 670 -1577 12 -86 14 81 15 1329 l1 1427 -3140 0 -3140 0 0
-3135z"/>
<path d="M2860 6230 c-341 -41 -621 -109 -875 -214 -486 -202 -949 -550 -1265
-951 -132 -167 -226 -312 -328 -505 -180 -342 -297 -734 -332 -1120 -14 -149
-14 -469 0 -612 108 -1096 777 -2040 1782 -2517 440 -209 902 -303 1423 -288
783 22 1512 336 2078 895 407 401 707 926 837 1464 71 292 95 525 87 832 -18
699 -263 1353 -711 1901 -162 197 -431 443 -644 588 -394 267 -855 445 -1331
513 -125 18 -608 27 -721 14z m602 -85 c705 -75 1340 -376 1833 -870 471 -471
750 -1023 863 -1710 24 -146 26 -185 26 -435 0 -234 -3 -297 -22 -420 -96
-622 -340 -1143 -753 -1605 -263 -294 -551 -512 -914 -690 -405 -199 -800
-298 -1250 -312 -851 -26 -1661 304 -2267 923 -382 391 -657 902 -778 1444
-87 388 -92 888 -15 1262 123 587 389 1087 804 1512 355 362 781 628 1231 768
224 70 458 118 660 137 152 14 434 12 582 -4z"/>
<path d="M2890 6130 c-58 -5 -127 -14 -155 -19 -27 -6 -72 -13 -100 -17 -27
-3 -55 -10 -61 -15 -6 -5 -30 -10 -53 -11 -22 -1 -41 -5 -41 -10 0 -4 -14 -8
-30 -8 -17 0 -44 -7 -61 -15 -16 -9 -33 -14 -37 -11 -11 7 -113 -30 -105 -38
4 -4 -1 -4 -10 0 -11 4 -25 -1 -37 -11 -11 -10 -23 -15 -27 -12 -3 4 -13 1
-22 -7 -9 -8 -45 -24 -81 -36 -36 -12 -71 -26 -77 -32 -20 -16 -135 -69 -128
-58 3 5 0 12 -6 16 -8 4 -9 3 -5 -4 9 -16 -37 -44 -60 -36 -13 4 -15 3 -6 -3
9 -7 2 -16 -27 -35 -30 -20 -43 -23 -57 -15 -18 10 -18 9 -4 -8 8 -10 10 -16
3 -12 -6 4 -17 -1 -25 -11 -15 -21 -76 -63 -65 -45 6 9 3 11 -8 7 -9 -4 -13
-9 -10 -12 8 -9 -65 -54 -79 -49 -8 3 -13 -1 -12 -11 1 -10 -6 -16 -16 -16
-10 1 -18 -2 -18 -7 0 -5 -9 -9 -21 -9 -12 0 -17 4 -13 11 10 16 -25 -4 -61
-37 l-30 -26 37 26 c38 27 53 33 44 17 -4 -5 4 -7 16 -4 22 4 21 3 -5 -21 -16
-15 -34 -23 -43 -19 -8 3 -14 2 -13 -3 3 -17 -1 -37 -7 -32 -5 6 -13 0 -108
-91 -31 -29 -56 -47 -57 -40 0 11 -2 10 -7 -1 -8 -18 -46 -62 -123 -142 -31
-32 -55 -58 -53 -58 2 0 -13 -17 -32 -37 -20 -21 -47 -55 -61 -76 -15 -21 -32
-36 -38 -33 -8 3 -11 -2 -8 -12 2 -10 -5 -27 -16 -39 -12 -12 -21 -25 -21 -28
0 -4 -6 -13 -13 -20 -27 -31 -37 -44 -37 -50 0 -4 -11 -21 -25 -39 -14 -18
-25 -37 -25 -41 0 -4 -10 -22 -23 -39 -12 -17 -29 -43 -36 -58 -8 -16 -18 -28
-23 -28 -4 0 -8 -6 -8 -12 0 -7 -22 -58 -48 -113 -47 -96 -84 -174 -87 -185
-1 -3 -7 -18 -14 -35 -27 -62 -94 -262 -107 -315 -7 -30 -20 -84 -29 -120 -9
-36 -20 -87 -25 -115 -5 -27 -14 -72 -20 -100 -38 -169 -47 -617 -17 -825 25
-172 70 -398 88 -435 5 -11 10 -29 12 -40 8 -43 30 -110 48 -144 10 -20 19
-41 19 -47 0 -30 85 -215 158 -344 56 -99 58 -102 119 -193 29 -43 53 -83 53
-88 0 -5 4 -9 8 -9 5 0 25 -24 45 -52 21 -29 57 -75 82 -103 25 -27 45 -56 45
-62 0 -7 5 -13 10 -13 15 0 70 -51 70 -66 0 -6 12 -20 28 -30 15 -9 38 -29 52
-43 81 -83 219 -194 346 -279 133 -89 146 -96 249 -151 55 -30 107 -58 115
-62 51 -29 171 -78 300 -124 41 -14 82 -29 90 -32 8 -3 24 -8 35 -10 11 -1 29
-7 40 -12 11 -5 31 -12 45 -15 14 -2 42 -9 63 -15 83 -24 116 -31 197 -42 47
-6 92 -15 100 -19 36 -19 452 -33 645 -21 207 12 240 15 330 36 33 8 98 22
145 30 47 9 99 23 117 31 17 8 36 14 43 14 15 0 176 55 268 91 74 30 382 178
392 188 10 11 115 78 124 79 5 0 12 4 15 9 16 24 101 74 112 68 7 -5 10 -4 6
2 -6 9 12 29 66 70 35 26 124 101 149 125 10 10 22 18 28 18 6 0 10 7 10 15 0
8 6 15 13 15 6 1 28 21 47 45 19 25 41 45 47 45 7 0 13 5 13 11 0 5 15 27 34
47 78 83 116 127 116 134 0 4 11 19 25 34 45 49 26 10 -31 -61 -80 -100 -168
-199 -249 -280 -70 -70 -185 -175 -191 -175 -1 0 -18 -14 -36 -31 -37 -34
-153 -119 -163 -119 -4 0 -26 -16 -49 -35 -24 -19 -46 -35 -51 -35 -4 0 -29
-16 -55 -35 -26 -19 -55 -35 -64 -35 -9 0 -16 -3 -16 -7 0 -5 -10 -13 -23 -19
-12 -6 -60 -31 -107 -56 -189 -101 -493 -205 -750 -256 -30 -6 -77 -16 -105
-21 -137 -28 -341 -36 -645 -26 -78 2 -271 24 -283 32 -5 3 -32 7 -60 9 -28 3
-76 11 -107 20 -30 9 -75 20 -100 24 -25 5 -92 25 -150 45 -58 20 -119 40
-137 46 -18 5 -35 14 -38 19 -4 6 -12 10 -20 10 -31 0 -395 176 -431 208 -11
10 -32 23 -48 30 -30 13 -37 18 -145 102 -35 28 -68 50 -73 50 -4 0 -16 8 -26
18 -10 9 -43 37 -72 62 -30 25 -76 66 -103 93 -28 26 -51 47 -53 47 -2 0 -37
35 -78 78 -74 77 -121 132 -113 132 2 0 -16 20 -39 44 -51 53 -124 151 -124
166 0 5 -4 10 -10 10 -5 0 -10 4 -10 10 0 5 -21 38 -46 72 -25 35 -55 79 -65
98 -11 19 -28 50 -39 68 -11 17 -17 32 -13 32 3 0 0 8 -8 18 -8 9 -22 33 -31
52 -8 19 -23 51 -32 70 -9 19 -20 42 -25 50 -5 8 -13 26 -19 40 -6 14 -20 47
-31 74 -12 27 -21 55 -21 63 0 8 -7 31 -16 51 -9 21 -20 46 -25 57 -18 43 -79
275 -98 370 -35 186 -45 322 -44 587 0 162 4 263 11 270 6 7 10 24 10 38 -1
48 15 165 23 176 5 6 10 31 11 56 2 25 7 43 12 40 5 -3 7 2 3 11 -3 9 -2 19 3
22 6 4 10 17 10 31 0 13 5 24 12 24 9 0 9 3 0 12 -6 6 -8 18 -3 27 5 9 12 34
16 56 7 43 45 138 56 143 4 2 5 12 2 23 -3 10 -1 25 5 32 5 6 13 27 17 45 3
18 11 30 16 27 5 -4 6 1 3 9 -3 8 1 28 9 43 19 35 31 66 29 76 -1 4 3 7 9 7 6
0 9 7 6 15 -4 8 -1 17 5 21 7 5 8 2 3 -6 -5 -9 -4 -11 3 -6 7 4 17 27 23 51 6
25 15 43 19 40 7 -4 17 17 26 57 5 21 51 68 59 60 3 -4 3 2 -1 12 -6 15 -4 17
7 11 11 -6 11 -5 2 5 -9 10 -7 17 8 33 10 11 19 27 19 34 0 8 4 11 10 8 6 -4
7 1 3 11 -5 13 -3 15 7 9 9 -5 11 -4 6 3 -4 7 -2 12 4 12 6 0 10 3 8 8 -2 4
12 23 31 42 18 19 31 28 28 19 -3 -9 0 -16 7 -16 6 0 12 8 12 18 0 10 -4 16
-7 13 -4 -2 -11 1 -14 6 -10 17 -45 -18 -38 -38 4 -9 2 -13 -4 -9 -30 19 -277
-428 -356 -643 -90 -242 -154 -511 -179 -745 -18 -173 -15 -510 6 -680 126
-1013 725 -1870 1631 -2332 135 -69 273 -127 435 -182 l135 -46 790 0 790 0
90 29 c536 171 974 451 1352 861 438 475 713 1096 774 1747 17 182 7 546 -20
718 -58 368 -182 732 -354 1035 -394 696 -1075 1232 -1812 1425 -188 49 -192
50 -262 53 -12 1 -19 5 -16 11 4 5 -7 7 -26 3 -18 -4 -30 -3 -27 1 16 27 -532
50 -754 32z m1472 -748 c8 -9 15 -56 18 -121 l5 -105 90 -12 c241 -31 378 -83
432 -163 31 -45 29 -88 -5 -142 -61 -94 -169 -172 -385 -279 l-139 -68 -1
-377 c-2 -360 -3 -377 -21 -391 -17 -12 -99 -14 -484 -14 l-464 0 7 -97 c9
-134 11 -139 61 -174 25 -17 42 -34 39 -40 -7 -11 -725 -13 -725 -1 0 4 20 24
44 44 40 34 44 41 50 100 3 35 9 87 12 116 l6 52 -464 0 c-403 0 -466 2 -486
16 -21 15 -22 21 -22 184 l0 169 -42 5 c-24 3 -68 8 -98 11 -30 3 -95 16 -145
29 -283 72 -341 194 -167 354 54 49 200 147 208 140 3 -3 -8 -14 -25 -24 -44
-28 -129 -112 -145 -142 -27 -53 -28 -85 -4 -132 20 -39 33 -50 98 -82 73 -36
180 -63 270 -70 l45 -3 2 290 c1 160 2 430 3 600 0 177 4 316 10 325 8 13 154
16 1182 20 645 3 1185 3 1200 1 15 -2 33 -10 40 -19z m-2465 -3542 c17 0 34
-35 27 -54 -9 -24 -44 -20 -44 4 0 19 -5 21 -77 18 l-78 -3 -1 -60 c-1 -88 1
-91 85 -87 62 3 71 6 71 23 0 21 39 28 41 7 3 -28 -4 -53 -15 -60 -19 -13
-201 -9 -214 4 -13 13 -17 175 -4 195 7 11 133 23 177 16 11 -1 25 -3 32 -3z
m2445 -41 c18 -21 37 -39 42 -39 5 0 24 18 43 40 24 28 43 40 61 40 25 0 23
-3 -31 -58 -55 -55 -57 -60 -57 -110 0 -45 -3 -52 -20 -52 -17 0 -20 7 -20 53
0 51 -2 55 -55 107 -30 29 -52 57 -50 60 10 17 57 -5 87 -41z m-3072 27 c0
-11 -15 -16 -52 -18 -60 -3 -55 7 -57 -130 -1 -51 -3 -58 -21 -58 -19 0 -20 7
-20 95 l0 95 -55 0 c-42 0 -55 3 -55 15 0 13 21 15 130 15 107 0 130 -3 130
-14z m300 -1 c0 -12 -17 -15 -90 -15 -89 0 -90 0 -90 -25 0 -19 5 -25 23 -26
12 -1 36 -2 52 -3 19 -1 30 -6 30 -16 0 -11 -14 -16 -50 -20 -46 -5 -50 -7
-53 -32 l-3 -28 90 0 c84 0 91 -1 91 -20 0 -19 -7 -20 -110 -20 l-110 0 0 110
0 110 110 0 c91 0 110 -3 110 -15z m522 -27 l3 -42 80 1 c44 1 83 2 88 2 4 1
7 19 7 41 0 34 3 40 20 40 20 0 21 -5 18 -107 -3 -92 -5 -108 -20 -111 -14 -3
-17 6 -20 45 l-3 48 -87 3 -87 3 -3 -48 c-2 -35 -8 -49 -19 -51 -22 -4 -29 25
-29 131 0 86 0 87 24 87 22 0 25 -5 28 -42z m452 -15 c39 -32 79 -65 89 -73
10 -8 21 -15 24 -15 4 0 5 33 4 73 -2 67 -1 72 18 72 20 0 21 -5 21 -110 0
-72 -4 -110 -11 -110 -10 0 -87 58 -159 119 -19 17 -38 31 -42 31 -4 0 -8 -33
-10 -72 -2 -60 -6 -73 -20 -76 -16 -3 -18 7 -18 107 0 135 2 136 104 54z m550
41 c11 -29 7 -179 -6 -192 -14 -14 -225 -17 -247 -3 -14 9 -21 177 -7 199 5 8
47 12 131 12 103 0 124 -3 129 -16z m176 -74 l0 -89 82 -3 c70 -3 83 -6 86
-21 3 -16 -5 -17 -105 -15 l-108 3 -2 108 -2 107 25 0 c24 0 24 -1 24 -90z
m521 69 c14 -26 2 -181 -15 -191 -13 -9 -218 -11 -240 -2 -13 5 -16 24 -16
103 0 54 3 101 7 104 3 4 62 7 129 7 115 0 124 -1 135 -21z m379 6 c20 -24 -3
-44 -30 -27 -11 7 -54 12 -100 12 l-81 0 3 -76 3 -76 80 0 80 0 0 28 c0 25 -4
29 -34 31 -40 3 -46 7 -36 23 4 7 29 10 63 8 l57 -3 3 -42 c6 -77 -3 -83 -128
-83 -136 0 -140 3 -140 106 0 114 0 114 134 114 90 0 116 -3 126 -15z m830 0
c6 -8 9 -19 5 -25 -8 -13 -35 -13 -35 0 0 6 -33 10 -80 10 -78 0 -80 -1 -80
-24 0 -29 28 -38 95 -30 27 3 60 0 76 -7 26 -10 29 -16 29 -58 0 -26 -5 -52
-12 -59 -19 -19 -202 -16 -222 4 -9 8 -16 20 -16 25 0 15 33 24 38 11 5 -15
168 -17 177 -2 3 5 1 19 -5 30 -9 18 -21 20 -93 20 -51 0 -88 5 -95 12 -16 16
-16 80 0 96 18 18 202 16 218 -3z m273 -12 c25 -49 88 -158 99 -170 7 -9 5
-15 -7 -20 -13 -4 -25 2 -39 20 -20 25 -27 27 -99 27 -73 0 -78 -1 -87 -25 -6
-15 -17 -25 -30 -25 -25 0 -24 5 5 55 13 22 31 55 39 73 43 93 91 119 119 65z
m257 -263 c0 -5 -5 -10 -11 -10 -5 0 -7 5 -4 10 3 6 8 10 11 10 2 0 4 -4 4
-10z m-3110 -116 c0 -8 -7 -14 -15 -14 -15 0 -21 21 -9 33 10 9 24 -2 24 -19z
m810 0 c0 -8 -7 -14 -15 -14 -15 0 -21 21 -9 33 10 9 24 -2 24 -19z m116 15
c4 -7 -1 -16 -10 -21 -20 -11 -21 -28 -1 -28 8 0 15 -6 15 -14 0 -8 -7 -16
-15 -20 -11 -4 -15 -21 -15 -67 0 -44 -3 -60 -12 -56 -8 2 -12 19 -11 43 1 21
-3 53 -8 71 -7 21 -7 38 0 50 5 10 12 26 15 36 6 19 31 23 42 6z m-1096 -42
c0 -24 3 -47 6 -50 4 -4 20 5 36 18 43 36 56 19 17 -21 l-33 -34 32 -33 c18
-18 32 -36 32 -40 0 -14 -27 -6 -45 13 -22 25 -43 26 -41 3 0 -10 -6 -18 -14
-18 -12 0 -16 18 -18 89 -2 49 -1 95 2 103 11 28 26 11 26 -30z m828 -50 l3
-86 31 -3 c55 -5 46 -28 -11 -28 l-51 0 0 106 c0 80 3 105 13 102 8 -3 13 -33
15 -91z m718 68 c8 -11 9 -26 4 -45 -6 -21 -4 -32 6 -41 20 -16 17 -63 -5 -83
-13 -12 -32 -16 -62 -14 l-44 3 -3 89 c-2 49 0 96 3 104 7 20 85 10 101 -13z
m334 1 c0 -13 7 -26 15 -30 8 -3 15 -10 15 -16 0 -5 -7 -10 -15 -10 -12 0 -15
-14 -15 -66 0 -48 -3 -65 -12 -62 -8 3 -14 28 -16 66 -2 34 -7 62 -12 62 -6 0
-10 7 -10 15 0 8 5 15 10 15 6 0 10 8 10 18 0 10 3 22 7 25 13 14 23 6 23 -17z
m120 0 c0 -13 7 -26 15 -30 8 -3 15 -10 15 -16 0 -5 -7 -10 -15 -10 -12 0 -15
-14 -15 -66 0 -48 -3 -65 -12 -62 -8 3 -14 28 -16 66 -2 34 -7 62 -12 62 -6 0
-10 7 -10 15 0 8 5 15 10 15 6 0 10 8 10 18 0 10 3 22 7 25 13 14 23 6 23 -17z
m-2459 -56 c18 -38 36 -70 39 -70 4 0 21 32 40 70 19 39 37 70 41 70 10 0 16
-24 24 -95 4 -33 9 -70 12 -82 4 -16 1 -23 -10 -23 -10 0 -17 16 -21 52 -4 28
-10 56 -13 60 -2 5 -18 -18 -34 -51 -15 -34 -32 -61 -36 -61 -5 0 -23 28 -40
63 l-31 62 -6 -40 c-13 -75 -17 -86 -27 -83 -6 2 -11 7 -11 11 -2 24 25 187
31 187 4 0 23 -31 42 -70z m332 24 l37 -7 0 -72 c0 -69 -1 -73 -22 -74 -13 0
-37 -2 -53 -5 -72 -9 -112 82 -60 138 25 27 37 30 98 20z m295 -79 c-2 -44 -8
-70 -15 -73 -10 -3 -13 16 -13 71 0 40 3 77 7 81 16 15 24 -15 21 -79z m177
65 c23 -26 27 -135 5 -135 -11 0 -15 14 -17 54 -2 62 -12 76 -46 67 -25 -6
-37 -37 -37 -97 0 -16 -4 -29 -10 -29 -6 0 -10 32 -10 78 l0 77 49 2 c37 2 52
-2 66 -17z m190 10 c5 -8 11 -8 19 -1 21 17 26 2 26 -76 0 -104 -17 -133 -78
-133 -40 0 -72 15 -72 35 0 17 16 20 25 5 9 -14 68 -13 83 2 21 21 13 26 -28
21 -33 -5 -45 -2 -65 17 -35 33 -35 91 1 119 28 22 78 28 89 11z m445 -76 c0
-59 -3 -74 -15 -74 -12 0 -15 15 -15 73 0 41 3 77 6 80 16 16 24 -10 24 -79z
m297 64 c12 -13 23 -32 25 -43 3 -18 -3 -20 -60 -23 -52 -2 -63 -6 -60 -19 6
-32 35 -39 73 -19 42 23 52 17 27 -15 -24 -28 -82 -31 -110 -5 -27 24 -33 75
-14 108 25 43 86 51 119 16z m478 -3 c14 -13 25 -33 25 -45 0 -18 -6 -20 -65
-20 -36 0 -65 -3 -65 -7 0 -14 34 -43 50 -43 9 0 25 7 36 15 25 19 34 19 34 0
0 -9 -15 -23 -34 -32 -29 -13 -40 -14 -64 -4 -54 23 -68 91 -27 135 32 34 77
35 110 1z m439 14 c14 -7 29 -24 35 -40 12 -34 2 -39 -76 -39 -55 0 -55 0 -41
-22 18 -28 60 -35 78 -14 14 17 40 22 40 7 0 -5 -12 -19 -27 -31 -20 -16 -36
-20 -57 -16 -62 13 -87 64 -60 121 20 44 59 56 108 34z m166 0 c0 -6 -9 -13
-19 -16 -22 -6 -31 -31 -31 -91 0 -30 -4 -42 -12 -40 -9 3 -14 30 -16 76 -3
70 -3 71 25 75 50 7 53 7 53 -4z"/>
<path d="M2040 5270 c-7 -13 -9 -202 -8 -572 l3 -553 110 -3 c121 -4 372 11
565 33 69 8 152 17 185 20 124 12 560 94 646 121 32 10 50 23 58 40 10 23 16
25 46 20 39 -8 44 2 23 47 -13 28 -32 38 -22 12 5 -11 -1 -15 -20 -15 -15 0
-29 7 -32 15 -4 8 -9 13 -13 10 -12 -7 -51 25 -51 42 0 12 -11 36 -37 82 -2 2
-9 -2 -18 -9 -11 -9 -22 -9 -46 -1 -40 14 -39 14 -39 -4 0 -8 -11 -22 -25 -31
-21 -14 -40 -15 -100 -10 -73 7 -76 6 -100 -20 -31 -33 -62 -27 -111 21 -19
19 -36 35 -38 35 -3 0 -21 -16 -40 -35 -37 -36 -60 -43 -71 -24 -4 6 -13 8
-21 5 -19 -7 -18 11 2 22 14 8 14 10 1 15 -19 7 -57 -19 -57 -39 0 -10 -7 -14
-17 -12 -28 6 -105 -50 -98 -71 5 -16 0 -18 -45 -13 -41 4 -50 2 -50 -12 0 -9
-6 -16 -12 -16 -14 0 -67 -60 -87 -97 -6 -13 -17 -23 -22 -23 -15 0 -2 68 19
100 9 14 15 32 14 41 -2 10 6 19 19 22 11 3 18 10 14 16 -3 6 1 11 9 11 9 0
16 7 16 15 0 8 5 15 11 15 5 0 9 8 7 18 -3 19 36 67 55 67 6 0 17 10 23 23 25
51 102 103 199 137 44 15 85 31 92 37 7 5 21 7 33 3 12 -4 27 -1 35 5 8 7 22
10 30 6 9 -3 27 1 40 10 12 8 54 18 92 21 76 6 127 -11 213 -73 34 -24 52 -31
73 -27 27 5 39 -11 15 -20 -8 -3 -2 -13 17 -28 16 -13 38 -32 47 -41 10 -10
22 -18 26 -18 13 0 72 -55 72 -67 0 -6 7 -16 15 -23 8 -7 12 -16 10 -20 -3 -5
5 -20 19 -33 13 -13 27 -34 31 -47 6 -20 12 -22 55 -17 45 5 362 107 443 141
l37 16 0 354 c-1 296 -4 357 -16 375 l-15 21 -1099 0 c-1080 0 -1099 0 -1110
-20z m866 -815 c7 -17 34 -21 34 -5 0 19 29 10 35 -11 4 -12 19 -32 33 -44 31
-27 23 -42 -26 -50 -20 -4 -50 -11 -67 -16 -34 -10 -87 1 -93 19 -2 8 8 12 27
12 16 0 33 5 36 10 3 6 -1 10 -9 10 -9 0 -16 1 -17 3 0 1 -2 21 -5 45 -6 40
-5 42 20 42 15 0 29 -7 32 -15z m604 -8 c28 -24 60 -67 60 -79 0 -5 -9 -8 -20
-8 -12 0 -26 12 -36 32 -16 32 -17 32 -25 10 -5 -12 -13 -22 -19 -22 -17 0
-24 29 -11 44 7 8 11 18 10 22 -5 30 8 31 41 1z m-461 -120 c6 -8 8 -16 5 -19
-10 -10 -44 4 -44 18 0 18 24 18 39 1z"/>
<path d="M4378 4869 c-2 -149 0 -273 4 -275 3 -2 42 14 84 37 408 214 418 412
26 494 -124 26 -111 55 -114 -256z"/>
<path d="M3230 4770 c0 -5 5 -10 10 -10 6 0 10 5 10 10 0 6 -4 10 -10 10 -5 0
-10 -4 -10 -10z"/>
<path d="M4140 4410 c-58 -21 -158 -55 -222 -76 -65 -20 -118 -37 -118 -38 0
-1 9 -21 20 -44 25 -52 27 -91 2 -46 -41 73 -42 74 -108 64 -32 -5 -108 -20
-169 -34 -433 -100 -863 -155 -1258 -161 -136 -2 -251 -6 -256 -9 -13 -9 -1
-88 17 -109 14 -16 78 -17 1108 -17 996 0 1093 2 1105 17 11 12 15 73 17 255
3 226 3 238 -15 237 -10 -1 -65 -18 -123 -39z m-260 -395 c0 -24 -4 -46 -9
-49 -11 -7 -20 47 -13 80 7 38 22 17 22 -31z"/>
<path d="M3615 4350 c-3 -5 1 -10 9 -10 9 0 16 5 16 10 0 6 -4 10 -9 10 -6 0
-13 -4 -16 -10z"/>
<path d="M3124 3855 c-15 -23 -15 -27 0 -50 29 -44 86 -28 86 25 0 53 -57 69
-86 25z"/>
<path d="M2870 1736 c0 -41 4 -76 10 -78 5 -1 48 -2 95 0 l86 3 -3 72 -3 72
-92 3 -93 3 0 -75z"/>
<path d="M3567 1803 c-10 -9 -8 -115 2 -131 5 -9 31 -12 92 -10 l84 3 3 73 3
72 -89 0 c-49 0 -92 -3 -95 -7z"/>
<path d="M5206 1765 c-20 -47 -20 -49 12 -57 41 -11 64 -1 56 25 -4 12 -10 24
-14 27 -3 3 -9 13 -13 23 -10 27 -25 20 -41 -18z"/>
<path d="M3724 1405 c-10 -25 3 -45 23 -38 25 9 34 25 21 40 -14 18 -37 16
-44 -2z"/>
<path d="M3727 1333 c-4 -3 -7 -19 -7 -35 0 -27 3 -29 32 -26 23 2 34 9 37 22
5 29 -43 59 -62 39z"/>
<path d="M2042 1358 c-18 -18 -14 -63 8 -83 45 -40 109 20 75 71 -17 26 -62
33 -83 12z"/>
<path d="M2712 1358 c-7 -7 -12 -26 -12 -44 0 -26 5 -34 29 -42 38 -13 71 8
71 47 0 34 -17 51 -50 51 -14 0 -31 -5 -38 -12z"/>
<path d="M3448 1360 l-23 -19 48 -1 c52 0 60 11 23 28 -21 9 -29 8 -48 -8z"/>
<path d="M3917 1363 c-16 -16 -4 -23 39 -23 40 0 45 2 34 15 -13 15 -61 21
-73 8z"/>
<path d="M4383 1367 c-36 -16 -27 -27 22 -27 49 0 58 11 23 27 -16 7 -30 7
-45 0z"/>
<path d="M1915 5870 c-33 -22 -29 -26 10 -8 14 6 25 15 25 20 0 11 -1 11 -35
-12z"/>
<path d="M1755 5790 c-3 -5 -1 -10 4 -10 6 0 11 5 11 10 0 6 -2 10 -4 10 -3 0
-8 -4 -11 -10z"/>
<path d="M1660 5740 c-9 -6 -10 -10 -3 -10 6 0 15 5 18 10 8 12 4 12 -15 0z"/>
<path d="M1569 5688 c-5 -18 -6 -38 -1 -34 7 8 12 36 6 36 -2 0 -4 -1 -5 -2z"/>
<path d="M1195 5409 c-45 -37 -74 -69 -61 -69 2 0 30 25 62 55 69 65 68 70 -1
14z"/>
<path d="M1067 5304 c-3 -3 -3 -13 0 -22 5 -12 2 -14 -13 -9 -18 7 -18 6 -2
-6 10 -8 14 -18 10 -23 -4 -4 1 -2 10 5 13 10 15 18 8 31 -5 9 -6 20 -3 24 3
3 4 6 1 6 -2 0 -7 -3 -11 -6z"/>
<path d="M1015 5249 c-4 -6 -5 -12 -2 -15 2 -3 7 2 10 11 7 17 1 20 -8 4z"/>
<path d="M964 5198 c-10 -13 -15 -20 -10 -15 5 4 20 0 33 -8 13 -9 23 -11 23
-6 0 5 -9 13 -21 16 -16 5 -18 10 -8 21 6 8 9 14 7 14 -3 0 -13 -10 -24 -22z"/>
<path d="M903 5128 c-11 -13 -23 -32 -27 -43 -6 -18 -5 -19 7 -3 8 10 16 15
19 12 4 -3 9 0 14 7 4 8 3 10 -4 5 -17 -10 -15 9 1 23 8 6 18 7 22 3 5 -4 5
-1 1 6 -9 16 -9 16 -33 -10z"/>
<path d="M825 5033 c-16 -21 -35 -44 -43 -50 -9 -7 -11 -13 -5 -13 7 0 21 12
32 26 13 16 21 21 21 12 0 -8 -5 -19 -12 -26 -9 -9 -9 -12 0 -12 6 0 14 11 18
25 3 14 11 25 18 25 6 0 5 4 -3 9 -12 8 -12 12 -2 25 8 9 11 16 8 16 -2 0 -17
-17 -32 -37z"/>
<path d="M755 4950 c-9 -15 -15 -54 -7 -46 4 4 8 12 8 17 1 5 2 13 3 19 0 5 8
7 16 4 8 -4 15 -4 15 -1 0 10 -30 16 -35 7z"/>
<path d="M2681 155 c3 -2 63 -12 134 -20 182 -23 519 -23 700 -1 77 10 142 19
144 22 2 2 -218 4 -489 4 -271 0 -491 -2 -489 -5z"/>
<path d="M6266 2764 c-21 -234 -104 -553 -213 -819 -444 -1088 -1496 -1854
-2658 -1934 -72 -5 483 -9 1383 -10 l1502 -1 0 1420 c0 781 -2 1420 -4 1420
-2 0 -6 -34 -10 -76z"/>
</g>
</svg>
